<?xml version="1.0" encoding="UTF-8"?>
<svg id="Layer_1" data-name="Layer 1" xmlns="http://www.w3.org/2000/svg" viewBox="0 0 500 500">
  <defs>
    <style>
      .cls-1 {
        fill: #36b98b;
      }

      .cls-2 {
        fill: #fff;
      }
    </style>
  </defs>
  <g>
    <g>
      <path class="cls-1" d="M110.33,401.06c-10.91-.33-22.17-1.58-31.81-6.41l-.16-.08-.16-.07c-7.91-3.66-14.09-9.3-17.88-16.31l-.08-.14c-4.65-8.33-7.01-18.38-7-29.87l.08-95.64c0-2.29,0-6.55-4.04-10.6-2.03-2.03-5.84-4.87-12.49-6.96-3.8-1.31-7.67-2.15-11.11-2.69l.02-21.65c4.44-.42,9.41-1.25,14.02-2.86l.23-.08.23-.09c5.36-2.14,7.78-4.19,9.14-5.54,3.59-3.58,4.05-7.75,4.05-10.98l.08-97.17c0-11.48,2.12-21.1,6.44-29.4,3.82-7.33,9.79-13.06,17.75-17.03,9.77-4.87,21.54-6.08,32.97-6.37l-.02,20.63c-9.1.23-17.36,1.04-23.65,3.9-12.85,5.42-12.86,22.61-12.87,28.29l-.08,97.17c0,8.9-3.06,17.13-8.82,23.79l-6.47,7.48,6.63,7.34c5.64,6.25,8.62,14.15,8.61,22.84l-.08,95.64c-.01,14.87,4.02,23.53,13.07,28.07,6.5,3.26,14.76,4.24,23.39,4.53l-.02,20.27Z"/>
      <path class="cls-1" d="M389.39,381.02c8.8-.28,17.16-1.25,23.49-4.55,9.14-4.56,13.4-13.46,13.41-28l.08-95.64c0-9.1,2.79-16.78,8.27-22.83l6.64-7.33-6.46-7.49c-5.5-6.38-8.41-14.61-8.4-23.8l.08-97.17c0-5.63.02-22.63-13.09-28.26-6.12-2.92-14.48-3.75-23.75-3.99l.02-20.63c11.44.31,23.21,1.54,32.96,6.43,7.95,3.99,13.92,9.73,17.72,17.06,4.31,8.31,6.4,17.93,6.4,29.41l-.08,97.17c0,3.23.45,7.4,4.04,10.99,1.79,1.79,4.73,3.61,8.74,5.39l.42.18.43.15c4.61,1.62,9.58,2.45,14.02,2.88l-.02,21.68c-3.38.53-7.21,1.35-11.05,2.62-5.92,1.84-9.14,4.26-10.7,5.44l-.24.18-.84.56-.78.78c-4.06,4.04-4.06,8.31-4.06,10.6l-.08,95.64c0,11.91-2.23,21.93-6.61,29.78-4.23,7.2-10.59,12.9-18.42,16.5l-.16.07-.16.08c-9.65,4.81-20.91,6.05-31.82,6.36l.02-20.26Z"/>
    </g>
    <g>
      <path class="cls-2" d="M297.07,382.36l-86.87-.07-22.6-36.66.14-176.29,129.63.1-.14,176.48-20.16,36.44ZM220.75,363.41l65.18.05,12.41-22.42.12-152.72-91.85-.07-.12,152.03,14.26,23.13Z"/>
      <rect class="cls-2" x="243.04" y="178.84" width="18.89" height="194.04"/>
      <g>
        <path class="cls-2" d="M293.06,187.59l-81.19-.07.05-61.93c0-10.62,8.66-19.25,19.27-19.24l42.68.03c10.62,0,19.25,8.66,19.24,19.27l-.05,61.93ZM230.77,168.65l43.41.04.03-43.04c0-.2-.16-.37-.37-.37l-42.68-.03c-.2,0-.37.16-.37.37l-.03,43.04Z"/>
        <g>
          <polygon class="cls-2" points="382.8 199.4 363.91 199.39 364 94.14 278.74 94.07 278.72 115.84 259.83 115.82 259.86 75.16 382.9 75.26 382.8 199.4"/>
          <polygon class="cls-2" points="140.96 199.21 122.07 199.19 122.17 75.05 245.21 75.15 245.17 115.81 226.28 115.79 226.3 94.02 141.04 93.96 140.96 199.21"/>
        </g>
      </g>
      <g>
        <polygon class="cls-2" points="354.23 372.97 335.34 372.95 335.39 303.73 306.6 303.71 306.62 284.82 354.3 284.86 354.23 372.97"/>
        <polygon class="cls-2" points="168.78 372.82 149.89 372.8 149.96 284.69 197.63 284.73 197.62 303.62 168.83 303.6 168.78 372.82"/>
        <polygon class="cls-2" points="168.85 275.79 149.96 275.78 150.01 218.77 196 218.81 195.98 237.7 168.89 237.68 168.85 275.79"/>
        <polygon class="cls-2" points="354.98 275.94 336.09 275.93 336.12 237.81 309.02 237.79 309.04 218.9 355.03 218.94 354.98 275.94"/>
        <polygon class="cls-2" points="355.04 201.15 309.05 201.11 309.07 182.22 336.16 182.24 336.19 144.13 355.09 144.14 355.04 201.15"/>
        <polygon class="cls-2" points="196.01 201.02 150.02 200.98 150.07 143.98 168.96 143.99 168.93 182.11 196.03 182.13 196.01 201.02"/>
      </g>
    </g>
  </g>
  <g>
    <path class="cls-1" d="M83.17,453.71c-3.51,3.44-7.4,4.9-11.93,4.9-9.05,0-16.57-5.69-16.56-16.53s7.47-16.51,16.59-16.5c4.34,0,7.97,1.35,11.34,4.66l-4.21,4.4c-1.97-1.91-4.59-2.81-7.07-2.81-5.67,0-10.08,4.01-10.08,10.26,0,6.63,4.58,10.14,10,10.15,2.68,0,5.42-.82,7.46-2.93l4.46,4.4Z"/>
    <path class="cls-1" d="M118.82,442.14c0,9.31-6.45,16.32-16.33,16.31s-16.19-7.03-16.18-16.33c0-9.24,6.45-16.38,16.21-16.37,9.69,0,16.32,7.15,16.31,16.4ZM92.87,442.12c0,5.61,3.63,10.2,9.62,10.21s9.69-4.58,9.7-10.19-3.94-10.33-9.68-10.34-9.63,4.77-9.64,10.32Z"/>
    <path class="cls-1" d="M157.41,413.29l-.04,44.56h-6.18s-.38-4.98-.38-4.98c-2.49,4.01-6.7,5.6-10.91,5.6-9.12,0-16.06-6.01-16.05-16.4,0-10.71,6.83-16.38,15.95-16.37,3.83,0,8.99,1.92,11.03,5.62v-18.04s6.58,0,6.58,0ZM130.42,442.08c0,6.31,4.39,10.27,9.94,10.27s10.01-4.07,10.02-10.26-4.52-10.2-10-10.21-9.95,3.75-9.95,10.19Z"/>
    <path class="cls-1" d="M171.22,444.6c.57,4.78,4.52,7.91,10.26,7.91,3.19,0,7.21-1.21,9.12-3.37l4.27,4.15c-3.25,3.57-8.67,5.35-13.52,5.34-10.33,0-16.95-6.58-16.95-16.65,0-9.56,6.71-16.38,16.53-16.37s17.02,6.2,15.8,19.01l-25.5-.02ZM190.42,439.07c-.38-4.97-4.01-7.59-9.3-7.59-4.78,0-8.74,2.61-9.76,7.58l19.06.02Z"/>
    <path class="cls-2" d="M230,453.83c-3.51,3.44-7.4,4.9-11.93,4.9-9.05,0-16.57-5.69-16.56-16.53s7.47-16.51,16.59-16.5c4.34,0,7.97,1.35,11.34,4.66l-4.21,4.4c-1.97-1.91-4.59-2.81-7.07-2.81-5.67,0-10.08,4.01-10.08,10.26,0,6.63,4.58,10.14,10,10.15,2.68,0,5.42-.82,7.46-2.93l4.46,4.4Z"/>
    <path class="cls-2" d="M260.36,426.5h6.38c0,10.46-.02,20.98-.03,31.44h-6.25s-.31-5.11-.31-5.11c-2.11,4.01-6.95,5.92-10.84,5.92-9.18.06-16.13-5.88-16.12-16.59,0-10.52,7.22-16.38,16.27-16.37,4.46,0,8.73,2.11,10.71,5.68l.2-4.97ZM239.76,442.17c0,6.5,4.58,10.46,10.19,10.46,13.58.01,13.6-20.84.02-20.85-5.61,0-10.2,3.94-10.21,10.38Z"/>
    <path class="cls-2" d="M281.78,426.52l.44,4.14c2.3-4.02,5.87-4.84,9.25-4.84,3.06,0,5.99,1.09,7.78,2.68l-3,5.74c-1.59-1.28-3.12-1.92-5.55-1.92-4.53,0-8.48,2.8-8.49,8.6v17.02s-6.58,0-6.58,0l.03-31.43h6.12Z"/>
    <path class="cls-2" d="M328.07,426.56h6.38c0,10.46-.02,20.98-.03,31.44h-6.25s-.31-5.11-.31-5.11c-2.11,4.01-6.95,5.92-10.84,5.92-9.18.06-16.13-5.88-16.12-16.59,0-10.52,7.22-16.38,16.27-16.37,4.46,0,8.73,2.11,10.71,5.68l.2-4.97ZM307.46,442.23c0,6.5,4.58,10.46,10.19,10.46,13.58.01,13.6-20.84.02-20.85-5.61,0-10.2,3.94-10.21,10.38Z"/>
    <path class="cls-2" d="M369.93,453.94c-3.51,3.44-7.4,4.9-11.93,4.9-9.05,0-16.57-5.69-16.56-16.53s7.47-16.51,16.59-16.5c4.34,0,7.97,1.35,11.34,4.66l-4.21,4.4c-1.97-1.91-4.59-2.81-7.07-2.81-5.67,0-10.08,4.01-10.08,10.26,0,6.63,4.58,10.14,10,10.15,2.68,0,5.42-.82,7.46-2.93l4.46,4.4Z"/>
    <path class="cls-2" d="M382.4,413.41v17.85c2.73-3.82,6.43-5.1,10.19-5.09,8.86,0,12.94,5.94,12.93,14.93v16.96s-6.58,0-6.58,0v-16.9c.02-5.93-3.04-8.86-7.88-8.87-5.1,0-8.67,4.2-8.68,9.36v16.39s-6.58,0-6.58,0l.04-44.63h6.57Z"/>
    <path class="cls-2" d="M439.26,426.65h6.38c0,10.46-.02,20.98-.03,31.44h-6.25s-.31-5.11-.31-5.11c-2.11,4.01-6.95,5.92-10.84,5.92-9.18.06-16.13-5.88-16.12-16.59s7.22-16.38,16.27-16.37c4.46,0,8.73,2.11,10.71,5.68l.2-4.97ZM418.65,442.32c0,6.5,4.58,10.46,10.19,10.46,13.58.01,13.6-20.84.02-20.85-5.61,0-10.2,3.94-10.21,10.38Z"/>
  </g>
</svg>