<?xml version="1.0" encoding="UTF-8"?>
<svg id="Layer_1" data-name="Layer 1" xmlns="http://www.w3.org/2000/svg" viewBox="0 0 500 94.18">
  <defs>
    <style>
      .cls-1 {
        fill: #36b98b;
      }

      .cls-2 {
        fill: #fff;
      }
    </style>
  </defs>
  <g>
    <path class="cls-1" d="M42.64,73.37c-1.46-.04-2.96-.21-4.25-.86h-.02s-.02-.02-.02-.02c-1.06-.49-1.88-1.24-2.39-2.18v-.02c-.63-1.11-.95-2.45-.95-3.99v-12.78c.01-.31.01-.88-.53-1.42-.27-.27-.78-.65-1.67-.93-.51-.17-1.03-.29-1.48-.36v-2.89c.59-.06,1.26-.17,1.87-.38h.03s.03-.02.03-.02c.72-.29,1.04-.56,1.22-.74.48-.48.54-1.04.54-1.47v-12.98c.01-1.53.29-2.82.87-3.93.51-.98,1.31-1.74,2.37-2.27,1.3-.65,2.88-.81,4.4-.85v2.76c-1.22.03-2.32.14-3.16.52-1.72.72-1.72,3.02-1.72,3.78v12.98c-.01,1.19-.42,2.29-1.19,3.18l-.86,1,.89.98c.75.83,1.15,1.89,1.15,3.05v12.78c-.01,1.99.53,3.14,1.74,3.75.87.43,1.97.57,3.12.61v2.71Z"/>
    <path class="cls-1" d="M79.92,70.7c1.18-.04,2.29-.17,3.14-.61,1.22-.61,1.79-1.8,1.79-3.74v-12.78c.01-1.22.38-2.24,1.11-3.05l.89-.98-.86-1c-.73-.85-1.12-1.95-1.12-3.18v-12.98c.01-.75.01-3.02-1.74-3.78-.82-.39-1.93-.5-3.17-.53v-2.76c1.53.04,3.1.21,4.41.86,1.06.53,1.86,1.3,2.37,2.28.58,1.11.86,2.4.85,3.93v12.98c-.01.43.05.99.53,1.47.24.24.63.48,1.17.72l.06.02.06.02c.62.22,1.28.33,1.87.38v2.9c-.45.07-.96.18-1.48.35-.79.25-1.22.57-1.43.73l-.03.02-.11.07-.1.1c-.54.54-.54,1.11-.54,1.42v12.78c-.01,1.59-.31,2.93-.89,3.98-.56.96-1.42,1.72-2.46,2.2h-.02s-.02.02-.02.02c-1.29.64-2.79.81-4.25.85v-2.71Z"/>
  </g>
  <g>
    <path class="cls-1" d="M125.31,59.89c-3.35,3.28-7.06,4.67-11.37,4.67-8.63,0-15.8-5.42-15.79-15.76s7.13-15.74,15.82-15.73c4.13,0,7.6,1.28,10.82,4.45l-4.02,4.19c-1.88-1.83-4.37-2.68-6.75-2.68-5.41,0-9.61,3.82-9.61,9.78,0,6.32,4.37,9.67,9.54,9.67,2.55,0,5.17-.79,7.11-2.79l4.25,4.2Z"/>
    <path class="cls-1" d="M159.3,48.85c0,8.88-6.15,15.56-15.57,15.55s-15.44-6.7-15.43-15.57c0-8.81,6.15-15.62,15.45-15.61s15.56,6.82,15.55,15.64ZM134.56,48.83c0,5.35,3.46,9.73,9.17,9.73,5.78,0,9.24-4.37,9.25-9.72s-3.76-9.85-9.23-9.86c-5.71,0-9.18,4.55-9.19,9.84Z"/>
    <path class="cls-1" d="M196.1,21.35l-.03,42.49h-5.9s-.36-4.75-.36-4.75c-2.37,3.83-6.39,5.34-10.4,5.34-8.69,0-15.31-5.73-15.31-15.64,0-10.21,6.52-15.62,15.21-15.61,3.65,0,8.57,1.83,10.51,5.36v-17.2s6.28,0,6.28,0ZM170.36,48.8c0,6.02,4.19,9.79,9.48,9.79s9.55-3.88,9.55-9.78-4.31-9.73-9.54-9.73-9.49,3.58-9.49,9.72Z"/>
    <path class="cls-1" d="M209.27,51.21c.54,4.56,4.31,7.54,9.78,7.55,3.04,0,6.87-1.15,8.7-3.21l4.07,3.95c-3.1,3.4-8.27,5.1-12.89,5.1-9.85,0-16.16-6.27-16.16-15.88,0-9.12,6.4-15.62,15.76-15.61s16.23,5.91,15.06,18.13l-24.32-.02ZM227.57,45.93c-.36-4.74-3.82-7.24-8.87-7.24-4.56,0-8.33,2.49-9.31,7.23h18.18Z"/>
    <path class="cls-2" d="M265.31,60c-3.35,3.28-7.06,4.67-11.37,4.67-8.63,0-15.8-5.42-15.79-15.76,0-10.33,7.13-15.74,15.82-15.73,4.13,0,7.6,1.28,10.82,4.45l-4.02,4.19c-1.88-1.83-4.37-2.68-6.75-2.68-5.41,0-9.61,3.82-9.61,9.78,0,6.32,4.37,9.67,9.54,9.67,2.55,0,5.17-.79,7.11-2.79l4.25,4.2Z"/>
    <path class="cls-2" d="M294.26,33.95h6.08c0,9.97-.02,20-.02,29.97h-5.96s-.3-4.87-.3-4.87c-2.01,3.83-6.63,5.65-10.34,5.64-8.75.05-15.38-5.61-15.37-15.82,0-10.03,6.88-15.62,15.51-15.61,4.26,0,8.33,2.01,10.21,5.42l.19-4.74ZM274.62,48.89c0,6.2,4.37,9.97,9.72,9.98,12.95.01,12.96-19.87.02-19.88-5.35,0-9.73,3.76-9.73,9.9Z"/>
    <path class="cls-2" d="M314.69,33.97l.42,3.95c2.19-3.83,5.6-4.62,8.82-4.61,2.92,0,5.71,1.04,7.41,2.56l-2.86,5.47c-1.52-1.22-2.98-1.83-5.29-1.83-4.32,0-8.09,2.67-8.09,8.2v16.23s-6.27,0-6.27,0l.02-29.97h5.84Z"/>
    <path class="cls-2" d="M358.82,34h6.08c0,9.97-.02,20-.02,29.97h-5.96s-.3-4.87-.3-4.87c-2.01,3.83-6.63,5.65-10.34,5.64-8.75.05-15.38-5.61-15.37-15.82,0-10.03,6.88-15.62,15.51-15.61,4.26,0,8.33,2.01,10.21,5.42l.19-4.74ZM339.17,48.94c0,6.2,4.37,9.97,9.72,9.98,12.95.01,12.96-19.87.02-19.88-5.35,0-9.73,3.76-9.73,9.9Z"/>
    <path class="cls-2" d="M398.74,60.11c-3.35,3.28-7.06,4.67-11.37,4.67-8.63,0-15.8-5.42-15.79-15.76,0-10.33,7.13-15.74,15.82-15.73,4.13,0,7.6,1.28,10.82,4.45l-4.02,4.19c-1.88-1.83-4.37-2.68-6.75-2.68-5.41,0-9.61,3.82-9.61,9.78,0,6.32,4.37,9.67,9.54,9.67,2.55,0,5.17-.79,7.11-2.79l4.25,4.2Z"/>
    <path class="cls-2" d="M410.62,21.46v17.02c2.6-3.65,6.13-4.86,9.72-4.86,8.45,0,12.34,5.66,12.33,14.23v16.17s-6.27,0-6.27,0v-16.11c.02-5.65-2.9-8.45-7.52-8.46-4.86,0-8.27,4.01-8.27,8.93v15.62s-6.27,0-6.27,0l.03-42.55h6.26Z"/>
    <path class="cls-2" d="M464.84,34.09h6.08c0,9.97-.02,20-.02,29.97h-5.96s-.3-4.87-.3-4.87c-2.01,3.83-6.63,5.65-10.34,5.64-8.75.05-15.38-5.61-15.37-15.82,0-10.03,6.88-15.62,15.51-15.61,4.26,0,8.33,2.01,10.21,5.42l.19-4.74ZM445.19,49.03c0,6.2,4.37,9.97,9.72,9.98,12.95.01,12.96-19.87.02-19.88-5.35,0-9.73,3.76-9.73,9.9Z"/>
  </g>
  <g>
    <path class="cls-2" d="M67.58,70.88h-11.6s-3.02-4.91-3.02-4.91l.02-23.55h17.32s-.02,23.59-.02,23.59l-2.69,4.87ZM57.39,68.34h8.71s1.66-2.99,1.66-2.99l.02-20.4h-12.27s-.02,20.3-.02,20.3l1.9,3.09Z"/>
    <rect class="cls-2" x="60.37" y="43.69" width="2.52" height="25.92"/>
    <g>
      <path class="cls-2" d="M67.05,44.86h-10.85s0-8.28,0-8.28c0-1.42,1.16-2.57,2.57-2.57h5.7c1.42,0,2.57,1.16,2.57,2.58v8.27ZM58.73,42.33h5.8s0-5.74,0-5.74c0-.03-.02-.05-.05-.05h-5.7s-.05.02-.05.04v5.75Z"/>
      <g>
        <polygon class="cls-2" points="79.04 46.44 76.51 46.43 76.53 32.38 65.14 32.37 65.13 35.27 62.61 35.27 62.61 29.84 79.05 29.85 79.04 46.44"/>
        <polygon class="cls-2" points="46.73 46.41 44.21 46.41 44.22 29.83 60.66 29.84 60.65 35.27 58.13 35.27 58.13 32.36 46.74 32.35 46.73 46.41"/>
      </g>
    </g>
    <g>
      <polygon class="cls-2" points="75.22 69.62 72.7 69.62 72.7 60.37 68.86 60.37 68.86 57.85 75.23 57.85 75.22 69.62"/>
      <polygon class="cls-2" points="50.45 69.6 47.92 69.6 47.93 57.83 54.3 57.83 54.3 60.36 50.45 60.35 50.45 69.6"/>
      <polygon class="cls-2" points="50.46 56.64 47.93 56.64 47.94 49.02 54.08 49.03 54.08 51.55 50.46 51.55 50.46 56.64"/>
      <polygon class="cls-2" points="75.32 56.66 72.8 56.66 72.8 51.57 69.18 51.56 69.18 49.04 75.33 49.05 75.32 56.66"/>
      <polygon class="cls-2" points="75.33 46.67 69.19 46.66 69.19 44.14 72.81 44.14 72.81 39.05 75.33 39.05 75.33 46.67"/>
      <polygon class="cls-2" points="54.09 46.65 47.94 46.65 47.95 39.03 50.47 39.03 50.47 44.13 54.09 44.13 54.09 46.65"/>
    </g>
  </g>
</svg>